<?xml version="1.0" encoding="UTF-8"?>
<svg id="Laag_1" data-name="Laag 1" xmlns="http://www.w3.org/2000/svg" viewBox="0 0 500 500">
  <defs>
    <style>
      .cls-1 {
        fill: #fff;
      }

      .cls-2 {
        fill: #ffab24;
      }
    </style>
  </defs>
  <path class="cls-1" d="M73.28,188.65c23.93,0,43.41,19.47,43.41,43.41s-19.47,43.41-43.41,43.41-43.41-19.47-43.41-43.41,19.47-43.41,43.41-43.41M73.28,164.17c-37.49,0-67.89,30.4-67.89,67.89s30.4,67.89,67.89,67.89,67.89-30.4,67.89-67.89-30.4-67.89-67.89-67.89h0Z"/>
  <g>
    <path class="cls-1" d="M169.85,285.6c-3.69,0-6.59-1.03-8.7-3.08-2.11-2.06-3.16-5.03-3.16-8.93v-56.13c0-3.9,1.03-6.88,3.09-8.93,2.05-2.06,4.98-3.09,8.77-3.09s6.54,1.03,8.54,3.09c2,2.05,3,5.03,3,8.93v9.01l-1.74-5.06c2.32-5.27,5.9-9.3,10.75-12.09,4.85-2.79,10.28-4.19,16.29-4.19,6.32,0,11.46,1.18,15.41,3.56,3.96,2.37,6.93,5.98,8.93,10.83,2,4.85,3,10.97,3,18.34v35.73c0,3.9-1,6.88-3,8.93-2,2.05-4.96,3.08-8.85,3.08-3.69,0-6.62-1.03-8.77-3.08-2.16-2.06-3.24-5.03-3.24-8.93v-34.78c0-5.38-.97-9.25-2.92-11.62-1.95-2.37-4.88-3.56-8.77-3.56-5.06,0-9.09,1.58-12.1,4.74-3,3.16-4.5,7.38-4.5,12.65v32.57c0,8.01-4.01,12.02-12.02,12.02Z"/>
    <path class="cls-1" d="M296.34,285.91c-9.17,0-17.05-1.63-23.64-4.9-6.59-3.27-11.65-7.93-15.18-13.99-3.53-6.06-5.3-13.25-5.3-21.58s1.71-14.99,5.14-20.95c3.42-5.95,8.14-10.67,14.15-14.15,6.01-3.48,12.81-5.22,20.4-5.22,5.8,0,10.93.92,15.41,2.77,4.48,1.84,8.35,4.48,11.62,7.9,3.27,3.43,5.74,7.59,7.43,12.49,1.68,4.9,2.53,10.35,2.53,16.36,0,2-.63,3.5-1.9,4.5-1.26,1-3.11,1.5-5.53,1.5h-49.49v-12.33h39.69l-2.53,2.21c0-4.32-.63-7.93-1.9-10.83-1.26-2.9-3.09-5.11-5.45-6.64-2.37-1.53-5.3-2.29-8.78-2.29-3.9,0-7.22.9-9.96,2.69-2.74,1.79-4.85,4.4-6.32,7.82-1.48,3.43-2.22,7.51-2.22,12.25v1.26c0,8.01,1.84,13.91,5.53,17.71,3.69,3.79,9.27,5.69,16.76,5.69,2.53,0,5.4-.32,8.62-.95,3.22-.63,6.3-1.63,9.25-3,2.53-1.16,4.69-1.53,6.49-1.11,1.79.42,3.24,1.29,4.35,2.61,1.11,1.32,1.71,2.87,1.82,4.66.1,1.79-.29,3.56-1.18,5.3-.9,1.74-2.4,3.19-4.51,4.35-3.69,2.11-7.8,3.61-12.33,4.51-4.53.89-8.85,1.34-12.96,1.34Z"/>
    <path class="cls-1" d="M354.99,285.44c-2.84,0-5.19-.82-7.03-2.45-1.85-1.63-2.79-3.71-2.85-6.24s1.03-5.11,3.24-7.75l24.35-30.04v10.91l-22.77-28.14c-2.21-2.63-3.27-5.19-3.16-7.67.1-2.47,1.05-4.53,2.85-6.16,1.79-1.63,4.11-2.45,6.96-2.45,3.06,0,5.53.48,7.43,1.42,1.9.95,3.64,2.53,5.22,4.75l16.92,21.82h-8.38l17.08-21.82c1.68-2.22,3.45-3.79,5.3-4.75,1.84-.95,4.19-1.42,7.03-1.42s5.3.85,7.04,2.53c1.74,1.69,2.66,3.77,2.76,6.25.1,2.48-.95,5.03-3.16,7.67l-22.77,27.83v-10.59l24.67,29.88c2.11,2.53,3.13,5.06,3.08,7.59-.05,2.53-1,4.64-2.85,6.32-1.84,1.68-4.24,2.53-7.19,2.53s-5.22-.5-7.12-1.5c-1.9-1-3.69-2.55-5.37-4.66l-18.5-23.56h8.22l-18.66,23.56c-1.58,2-3.32,3.53-5.22,4.58-1.9,1.05-4.27,1.58-7.11,1.58Z"/>
    <path class="cls-1" d="M477.22,285.91c-7.27,0-13.36-1.18-18.26-3.56-4.9-2.37-8.51-5.87-10.83-10.51-2.32-4.64-3.48-10.48-3.48-17.55v-29.88h-6.96c-2.84,0-5.09-.76-6.72-2.29-1.63-1.53-2.45-3.71-2.45-6.56s.82-5.01,2.45-6.48c1.63-1.48,3.88-2.22,6.72-2.22h6.96v-12.17c0-4,1.03-7.01,3.08-9.01,2.06-2,4.98-3,8.78-3s6.88,1,8.93,3c2.05,2,3.09,5.01,3.09,9.01v12.17h14.7c3.06,0,5.37.74,6.95,2.22,1.58,1.48,2.37,3.64,2.37,6.48s-.79,5.04-2.37,6.56c-1.58,1.53-3.9,2.29-6.95,2.29h-14.7v28.93c0,4.43,1,7.72,3,9.88,2,2.16,5.27,3.24,9.8,3.24,1.58,0,3.08-.16,4.5-.48,1.42-.31,2.61-.48,3.56-.48,1.48-.1,2.71.34,3.72,1.35,1,1,1.5,3.19,1.5,6.56,0,2.64-.39,4.9-1.18,6.8-.79,1.9-2.29,3.22-4.5,3.95-1.37.42-3.27.81-5.69,1.18-2.43.37-4.43.55-6.01.55Z"/>
  </g>
  <rect class="cls-2" x="95.44" y="296.29" width="32.83" height="32.83"/>
  <g>
    <path class="cls-1" d="M192.96,329.4c-.62,0-1.09-.17-1.43-.5s-.5-.81-.5-1.43v-20.4c0-.62.17-1.09.5-1.43.33-.33.81-.5,1.43-.5h6.64c3.99,0,7.07,1.04,9.23,3.11,2.17,2.08,3.25,5.07,3.25,8.99,0,1.95-.28,3.68-.83,5.19-.55,1.51-1.36,2.78-2.43,3.8-1.07,1.02-2.37,1.8-3.9,2.34-1.54.54-3.31.81-5.33.81h-6.64ZM194.61,326.41h4.78c1.51,0,2.83-.19,3.94-.57,1.11-.38,2.05-.95,2.8-1.7.76-.76,1.32-1.71,1.69-2.86.36-1.15.55-2.49.55-4.02,0-3.05-.75-5.33-2.25-6.85s-3.74-2.27-6.73-2.27h-4.78v18.26Z"/>
    <path class="cls-1" d="M225.3,329.71c-1.17,0-2.22-.23-3.15-.69-.93-.46-1.66-1.08-2.19-1.86-.53-.78-.79-1.66-.79-2.65,0-1.24.32-2.22.95-2.94.63-.72,1.67-1.24,3.13-1.55s3.42-.47,5.9-.47h1.62v2.13h-1.58c-1.65,0-2.96.08-3.92.24-.96.16-1.65.43-2.05.81-.4.38-.6.9-.6,1.57,0,.87.3,1.58.89,2.11.6.54,1.42.81,2.48.81.85,0,1.59-.2,2.24-.6.64-.4,1.15-.95,1.53-1.63.38-.69.57-1.48.57-2.37v-3.96c0-1.31-.27-2.25-.83-2.82-.55-.57-1.46-.86-2.72-.86-.73,0-1.5.09-2.29.28-.79.18-1.61.49-2.46.93-.39.18-.72.24-1,.17-.28-.07-.49-.22-.66-.47-.16-.24-.25-.5-.26-.79-.01-.29.06-.57.21-.84.15-.27.41-.48.77-.62,1.01-.48,2.01-.83,2.99-1.03.98-.21,1.91-.31,2.79-.31,1.54,0,2.8.24,3.8.72,1,.48,1.74,1.22,2.22,2.2.48.99.72,2.26.72,3.82v8.84c0,.55-.14.98-.41,1.29-.28.31-.68.46-1.2.46s-.91-.15-1.2-.46-.45-.74-.45-1.29v-2.23h.31c-.18.85-.52,1.58-1.01,2.18-.49.61-1.11,1.07-1.84,1.39-.73.32-1.57.48-2.51.48Z"/>
    <path class="cls-1" d="M249,329.71c-1.38,0-2.53-.24-3.47-.72s-1.64-1.19-2.1-2.13c-.46-.94-.69-2.08-.69-3.44v-8.12h-2.07c-.46,0-.81-.12-1.07-.36s-.38-.57-.38-.98c0-.43.13-.77.38-1,.25-.23.61-.35,1.07-.35h2.07v-3.54c0-.57.15-1.01.46-1.31s.74-.45,1.29-.45.97.15,1.27.45.45.73.45,1.31v3.54h4.02c.46,0,.81.12,1.07.35.25.23.38.56.38,1s-.13.74-.38.98-.61.36-1.07.36h-4.02v7.84c0,1.22.26,2.13.77,2.75s1.36.93,2.53.93c.41,0,.77-.04,1.08-.12.31-.08.57-.13.77-.15.25,0,.46.09.62.26.16.17.24.5.24.98,0,.35-.06.67-.19.96-.12.3-.35.49-.67.58-.28.09-.65.18-1.12.26-.47.08-.89.12-1.25.12Z"/>
    <path class="cls-1" d="M263.2,329.71c-1.17,0-2.22-.23-3.15-.69-.93-.46-1.66-1.08-2.19-1.86-.53-.78-.79-1.66-.79-2.65,0-1.24.32-2.22.95-2.94.63-.72,1.67-1.24,3.13-1.55s3.42-.47,5.9-.47h1.62v2.13h-1.58c-1.65,0-2.96.08-3.92.24-.96.16-1.65.43-2.05.81-.4.38-.6.9-.6,1.57,0,.87.3,1.58.89,2.11.6.54,1.42.81,2.48.81.85,0,1.59-.2,2.24-.6.64-.4,1.15-.95,1.53-1.63.38-.69.57-1.48.57-2.37v-3.96c0-1.31-.27-2.25-.83-2.82-.55-.57-1.46-.86-2.72-.86-.73,0-1.5.09-2.29.28-.79.18-1.61.49-2.46.93-.39.18-.72.24-1,.17-.28-.07-.49-.22-.66-.47-.16-.24-.25-.5-.26-.79-.01-.29.06-.57.21-.84.15-.27.41-.48.77-.62,1.01-.48,2.01-.83,2.99-1.03.98-.21,1.91-.31,2.79-.31,1.54,0,2.8.24,3.8.72,1,.48,1.74,1.22,2.22,2.2.48.99.72,2.26.72,3.82v8.84c0,.55-.14.98-.41,1.29-.28.31-.68.46-1.2.46s-.91-.15-1.2-.46-.45-.74-.45-1.29v-2.23h.31c-.18.85-.52,1.58-1.01,2.18-.49.61-1.11,1.07-1.84,1.39-.73.32-1.57.48-2.51.48Z"/>
    <path class="cls-1" d="M292.5,329.64c-.46,0-.83-.1-1.1-.31-.27-.21-.43-.48-.48-.83-.05-.34.02-.73.21-1.17l9.32-20.91c.23-.55.52-.94.88-1.17.36-.23.75-.34,1.19-.34.41,0,.8.12,1.15.34.36.23.65.62.88,1.17l9.32,20.91c.21.44.29.83.24,1.19-.05.36-.19.63-.45.83-.25.2-.61.29-1.07.29-.5,0-.9-.12-1.2-.38-.3-.25-.56-.64-.79-1.17l-2.41-5.57,1.62.96h-14.65l1.58-.96-2.38,5.57c-.23.55-.48.95-.76,1.19-.28.24-.64.36-1.1.36ZM302.44,309.11l-5.19,12.31-.86-.83h12.14l-.79.83-5.23-12.31h-.07Z"/>
    <path class="cls-1" d="M322.74,329.64c-.55,0-.98-.15-1.27-.46s-.45-.74-.45-1.29v-13.76c0-.57.15-1.01.45-1.31.3-.3.71-.45,1.24-.45s.97.15,1.26.45c.29.3.43.73.43,1.31v2.68l-.38-.62c.5-1.28,1.3-2.25,2.37-2.91,1.08-.66,2.32-.98,3.72-.98,1.33,0,2.44.25,3.32.74.88.49,1.54,1.24,1.98,2.24.44,1,.66,2.25.66,3.77v8.84c0,.55-.15.98-.45,1.29s-.72.46-1.27.46-1.01-.15-1.31-.46-.45-.74-.45-1.29v-8.63c0-1.44-.28-2.5-.84-3.16-.56-.66-1.44-1-2.63-1-1.4,0-2.52.44-3.35,1.31-.84.87-1.25,2.04-1.25,3.51v7.98c0,1.17-.59,1.75-1.75,1.75Z"/>
    <path class="cls-1" d="M349.64,329.71c-1.17,0-2.22-.23-3.15-.69-.93-.46-1.66-1.08-2.19-1.86-.53-.78-.79-1.66-.79-2.65,0-1.24.32-2.22.95-2.94.63-.72,1.67-1.24,3.13-1.55s3.42-.47,5.9-.47h1.62v2.13h-1.58c-1.65,0-2.96.08-3.92.24-.96.16-1.65.43-2.05.81-.4.38-.6.9-.6,1.57,0,.87.3,1.58.89,2.11.6.54,1.42.81,2.48.81.85,0,1.59-.2,2.24-.6.64-.4,1.15-.95,1.53-1.63.38-.69.57-1.48.57-2.37v-3.96c0-1.31-.27-2.25-.83-2.82-.55-.57-1.46-.86-2.72-.86-.73,0-1.5.09-2.29.28-.79.18-1.61.49-2.46.93-.39.18-.72.24-1,.17-.28-.07-.49-.22-.66-.47-.16-.24-.25-.5-.26-.79-.01-.29.06-.57.21-.84.15-.27.41-.48.77-.62,1.01-.48,2.01-.83,2.99-1.03.98-.21,1.91-.31,2.79-.31,1.54,0,2.8.24,3.8.72,1,.48,1.74,1.22,2.22,2.2.48.99.72,2.26.72,3.82v8.84c0,.55-.14.98-.41,1.29-.28.31-.68.46-1.2.46s-.91-.15-1.2-.46-.45-.74-.45-1.29v-2.23h.31c-.18.85-.52,1.58-1.01,2.18-.49.61-1.11,1.07-1.84,1.39-.73.32-1.57.48-2.51.48Z"/>
    <path class="cls-1" d="M371.58,329.71c-1.79,0-3.14-.52-4.04-1.56s-1.36-2.55-1.36-4.52v-16.96c0-.57.15-1.01.45-1.31.3-.3.72-.45,1.27-.45s.98.15,1.29.45c.31.3.47.73.47,1.31v16.75c0,1.15.24,2,.71,2.56.47.56,1.15.84,2.05.84.21,0,.39,0,.55-.02.16-.01.32-.03.48-.05.27-.02.47.05.58.22.12.17.17.52.17,1.05,0,.48-.1.85-.31,1.12-.21.26-.54.43-1,.5-.21.02-.42.04-.65.05-.23.01-.45.02-.65.02Z"/>
    <path class="cls-1" d="M384.1,335.83c-.41,0-.75-.11-1.01-.33-.26-.22-.41-.51-.45-.86-.03-.36.03-.74.19-1.15l2.34-5.26v1.48l-6.43-14.96c-.16-.41-.22-.8-.17-1.17s.22-.66.52-.88c.3-.22.7-.33,1.2-.33.44,0,.78.1,1.03.31s.48.56.69,1.07l5.19,12.83h-.96l5.26-12.83c.21-.53.45-.89.72-1.08.27-.19.65-.29,1.13-.29.41,0,.74.11.98.33.24.22.39.5.45.86.06.36,0,.74-.19,1.15l-8.6,19.78c-.23.53-.49.88-.77,1.07-.29.18-.66.28-1.12.28Z"/>
    <path class="cls-1" d="M408.62,329.71c-1.38,0-2.53-.24-3.47-.72s-1.64-1.19-2.1-2.13c-.46-.94-.69-2.08-.69-3.44v-8.12h-2.07c-.46,0-.81-.12-1.07-.36s-.38-.57-.38-.98c0-.43.13-.77.38-1,.25-.23.61-.35,1.07-.35h2.07v-3.54c0-.57.15-1.01.46-1.31s.74-.45,1.29-.45.97.15,1.27.45.45.73.45,1.31v3.54h4.02c.46,0,.81.12,1.07.35.25.23.38.56.38,1s-.13.74-.38.98-.61.36-1.07.36h-4.02v7.84c0,1.22.26,2.13.77,2.75.52.62,1.36.93,2.53.93.41,0,.77-.04,1.08-.12.31-.08.57-.13.77-.15.25,0,.46.09.62.26.16.17.24.5.24.98,0,.35-.06.67-.19.96-.12.3-.35.49-.67.58-.28.09-.65.18-1.12.26-.47.08-.89.12-1.25.12Z"/>
    <path class="cls-1" d="M419.18,308.87c-.69,0-1.22-.17-1.6-.52-.38-.35-.57-.83-.57-1.44s.19-1.13.57-1.46c.38-.33.91-.5,1.6-.5s1.22.17,1.6.5c.38.33.57.82.57,1.46s-.19,1.1-.57,1.44c-.38.34-.91.52-1.6.52ZM419.18,329.61c-.55,0-.98-.17-1.27-.5-.3-.33-.45-.8-.45-1.39v-13.41c0-.6.15-1.06.45-1.38.3-.32.72-.48,1.27-.48s.98.16,1.29.48c.31.32.47.78.47,1.38v13.41c0,.6-.15,1.06-.45,1.39-.3.33-.73.5-1.31.5Z"/>
    <path class="cls-1" d="M436.65,329.71c-1.72,0-3.21-.36-4.45-1.08-1.25-.72-2.22-1.74-2.91-3.06-.69-1.32-1.03-2.87-1.03-4.66,0-1.33.19-2.53.59-3.59.39-1.07.95-1.97,1.67-2.7.72-.73,1.61-1.3,2.65-1.7,1.04-.4,2.21-.6,3.49-.6.8,0,1.65.12,2.53.36.88.24,1.7.64,2.46,1.19.3.18.49.41.57.67.08.26.09.53.04.81-.06.28-.18.51-.38.71s-.43.31-.71.34-.57-.04-.89-.22c-.55-.39-1.11-.67-1.68-.84-.57-.17-1.12-.26-1.65-.26-.83,0-1.55.13-2.19.4s-1.16.64-1.6,1.13c-.44.49-.76,1.11-.98,1.84s-.33,1.57-.33,2.51c0,1.88.44,3.35,1.32,4.42.88,1.07,2.14,1.6,3.77,1.6.53,0,1.08-.08,1.65-.24s1.13-.44,1.68-.83c.32-.18.62-.25.89-.21.28.05.5.17.67.36.17.2.29.42.34.69s.04.53-.05.81c-.09.28-.29.5-.59.69-.73.53-1.53.9-2.39,1.13-.86.23-1.69.34-2.49.34Z"/>
    <path class="cls-1" d="M454.64,329.71c-1.01,0-2.05-.12-3.11-.34-1.07-.23-2.05-.62-2.94-1.17-.3-.21-.5-.43-.62-.69-.12-.25-.15-.51-.12-.77s.14-.49.31-.69c.17-.19.39-.31.65-.36.26-.05.54,0,.84.17.89.5,1.75.85,2.58,1.05.83.2,1.64.29,2.44.29,1.21,0,2.13-.22,2.75-.65.62-.44.93-1.02.93-1.75,0-.6-.21-1.06-.62-1.39-.41-.33-1.03-.59-1.86-.77l-3.27-.65c-1.42-.3-2.5-.83-3.23-1.58-.73-.76-1.1-1.72-1.1-2.89,0-1.05.29-1.97.86-2.75.57-.78,1.37-1.38,2.41-1.81,1.03-.42,2.22-.64,3.58-.64,1.01,0,1.96.13,2.86.38s1.72.63,2.48,1.13c.3.16.49.37.59.64s.11.52.05.77-.18.48-.36.67c-.18.2-.41.31-.67.35-.26.03-.56-.03-.88-.19-.69-.44-1.37-.75-2.05-.93-.68-.18-1.35-.28-2.01-.28-1.22,0-2.13.22-2.74.67-.61.45-.91,1.05-.91,1.8,0,.57.18,1.04.55,1.41s.94.63,1.72.79l3.27.65c1.49.3,2.62.8,3.39,1.51.77.71,1.15,1.67,1.15,2.89,0,1.58-.63,2.83-1.89,3.75-1.26.92-2.93,1.37-5.02,1.37Z"/>
  </g>
</svg>